<svg width="106" height="107" viewBox="0 0 106 107" fill="none" xmlns="http://www.w3.org/2000/svg">
<g opacity="0.7">
<path d="M50.1669 35.2525C50.1669 33.1475 49.7346 31.0515 48.7833 29.2265C47.7662 27.2706 45.5673 25.0436 43.4755 25.3191C43.4755 25.3191 16.5657 28.3502 7.11128 39.0424C7.11128 39.0424 -6.16036 50.8188 3.55763 63.6522C5.20886 65.834 7.26776 67.5957 9.52431 68.978C14.5439 72.0497 26.5102 78.7623 36.957 79.8871C39.4524 80.1536 41.9931 79.8419 44.3073 78.7849C47.0621 77.5291 50.0846 75.0672 50.1628 70.3151V35.257L50.1669 35.2525Z" fill="#F100FF"/>
</g>
<g opacity="0.7">
<path d="M55.833 35.2525C55.833 33.1475 56.2654 31.0515 57.2166 29.2265C58.2337 27.2706 60.4326 25.0436 62.5244 25.3191C62.5244 25.3191 89.4342 28.3502 98.8886 39.0424C98.8886 39.0424 112.16 50.8188 102.442 63.6522C100.791 65.834 98.7322 67.5957 96.4756 68.978C91.456 72.0497 79.4897 78.7623 69.0429 79.8871C66.5475 80.1536 64.0068 79.8419 61.6926 78.7849C58.9378 77.5291 55.9154 75.0672 55.8371 70.3151V35.257L55.833 35.2525Z" fill="#F100FF"/>
</g>
<g opacity="0.7">
<path d="M50.167 9.25172C50.167 7.44032 49.7964 5.63343 48.977 4.06144C48.0999 2.37652 46.2057 0.456706 44.4021 0.696119C44.4021 0.696119 21.2231 3.30707 13.0822 12.5177C13.0822 12.5177 1.65119 22.6633 10.0185 33.7124C11.4433 35.5916 13.214 37.1094 15.1576 38.3019C19.4812 40.949 29.7881 46.731 38.7896 47.6977C40.9391 47.9281 43.1256 47.6571 45.1227 46.7491C47.4946 45.665 50.1011 43.5464 50.167 39.4538V9.25172Z" fill="#0010E1"/>
</g>
<g opacity="0.7">
<path d="M55.833 9.25172C55.833 7.44032 56.2036 5.63343 57.023 4.06144C57.9001 2.37652 59.7943 0.456706 61.5979 0.696119C61.5979 0.696119 84.777 3.30707 92.9178 12.5177C92.9178 12.5177 104.349 22.6633 95.9815 33.7124C94.5567 35.5916 92.7861 37.1094 90.8425 38.3019C86.5188 40.949 76.212 46.731 67.2105 47.6977C65.061 47.9281 62.8744 47.6571 60.8773 46.7491C58.5055 45.665 55.8989 43.5464 55.833 39.4538V9.25172Z" fill="#0010E1"/>
</g>
<g opacity="0.7">
<path d="M50.167 68.1521C50.167 66.3407 49.7964 64.5338 48.977 62.9618C48.0999 61.2769 46.2057 59.3571 44.4021 59.5965C44.4021 59.5965 21.2231 62.2075 13.0822 71.4181C13.0822 71.4181 1.65119 81.5637 10.0185 92.6128C11.4433 94.492 13.214 96.0098 15.1576 97.2023C19.4812 99.8494 29.7881 105.631 38.7896 106.598C40.9391 106.828 43.1256 106.557 45.1227 105.65C47.4946 104.565 50.1011 102.447 50.167 98.3542V68.1566V68.1521Z" fill="#FE6500"/>
</g>
<g opacity="0.7">
<path d="M55.833 68.1521C55.833 66.3407 56.2036 64.5338 57.023 62.9618C57.9001 61.2769 59.7943 59.3571 61.5979 59.5965C61.5979 59.5965 84.777 62.2075 92.9178 71.4181C92.9178 71.4181 104.349 81.5637 95.9815 92.6128C94.5567 94.492 92.7861 96.0098 90.8425 97.2023C86.5188 99.8494 76.212 105.631 67.2105 106.598C65.061 106.828 62.8744 106.557 60.8773 105.65C58.5055 104.565 55.8989 102.447 55.833 98.3542V68.1566V68.1521Z" fill="#FE6500"/>
</g>
</svg>
