<svg width="76" height="75" viewBox="0 0 76 75" fill="none" xmlns="http://www.w3.org/2000/svg">
<g clip-path="url(#clip0_963_1456)">
<path d="M37.9848 7.01202C47.954 7.01202 49.1346 7.05575 53.0553 7.23065C56.699 7.39097 58.6666 8.00312 59.9784 8.51325C61.7128 9.18369 62.9662 9.99989 64.2634 11.2971C65.5752 12.6088 66.3768 13.8477 67.0472 15.5821C67.5574 16.8939 68.1695 18.876 68.3298 22.5052C68.5047 26.4404 68.5485 27.621 68.5485 37.5757C68.5485 47.545 68.5047 48.7256 68.3298 52.6462C68.1695 56.29 67.5574 58.2576 67.0472 59.5693C66.3768 61.3038 65.5606 62.5572 64.2634 63.8544C62.9517 65.1661 61.7128 65.9677 59.9784 66.6382C58.6666 67.1483 56.6844 67.7605 53.0553 67.9208C49.12 68.0957 47.9395 68.1394 37.9848 68.1394C28.0155 68.1394 26.8349 68.0957 22.9142 67.9208C19.2705 67.7605 17.3029 67.1483 15.9911 66.6382C14.2567 65.9677 13.0033 65.1515 11.7061 63.8544C10.3944 62.5426 9.59273 61.3038 8.92228 59.5693C8.41216 58.2576 7.80001 56.2754 7.63968 52.6462C7.46478 48.711 7.42106 47.5304 7.42106 37.5757C7.42106 27.6064 7.46478 26.4259 7.63968 22.5052C7.80001 18.8615 8.41216 16.8939 8.92228 15.5821C9.59273 13.8477 10.4089 12.5942 11.7061 11.2971C13.0178 9.98532 14.2567 9.18369 15.9911 8.51325C17.3029 8.00312 19.2851 7.39097 22.9142 7.23065C26.8349 7.05575 28.0155 7.01202 37.9848 7.01202ZM37.9848 0.292969C27.8552 0.292969 26.5871 0.336694 22.6082 0.511593C18.6438 0.686493 15.9183 1.32779 13.5571 2.24601C11.0939 3.20796 9.00973 4.47598 6.94009 6.5602C4.85587 8.62985 3.58784 10.7141 2.6259 13.1627C1.70767 15.5384 1.06638 18.2493 0.891476 22.2137C0.716576 26.2072 0.672852 27.4753 0.672852 37.6049C0.672852 47.7345 0.716576 49.0025 0.891476 52.9815C1.06638 56.9458 1.70767 59.6714 2.6259 62.0325C3.58784 64.4957 4.85587 66.5799 6.94009 68.6495C9.00973 70.7192 11.094 72.0018 13.5425 72.9492C15.9183 73.8674 18.6292 74.5087 22.5936 74.6836C26.5726 74.8585 27.8406 74.9022 37.9702 74.9022C48.0998 74.9022 49.3678 74.8585 53.3468 74.6836C57.3112 74.5087 60.0367 73.8674 62.3978 72.9492C64.8464 72.0018 66.9306 70.7192 69.0003 68.6495C71.0699 66.5799 72.3525 64.4957 73.2999 62.0471C74.2181 59.6714 74.8594 56.9604 75.0343 52.996C75.2092 49.0171 75.2529 47.749 75.2529 37.6194C75.2529 27.4898 75.2092 26.2218 75.0343 22.2429C74.8594 18.2785 74.2181 15.553 73.2999 13.1918C72.3817 10.7141 71.1136 8.62985 69.0294 6.5602C66.9598 4.49056 64.8756 3.20796 62.427 2.26059C60.0513 1.34237 57.3403 0.701068 53.3759 0.526168C49.3824 0.336694 48.1144 0.292969 37.9848 0.292969Z" fill="white"/>
<path d="M37.9844 18.4395C27.403 18.4395 18.8184 27.0241 18.8184 37.6055C18.8184 48.1869 27.403 56.7716 37.9844 56.7716C48.5659 56.7716 57.1505 48.1869 57.1505 37.6055C57.1505 27.0241 48.5659 18.4395 37.9844 18.4395ZM37.9844 50.038C31.1196 50.038 25.552 44.4703 25.552 37.6055C25.552 30.7407 31.1196 25.1731 37.9844 25.1731C44.8492 25.1731 50.4169 30.7407 50.4169 37.6055C50.4169 44.4703 44.8492 50.038 37.9844 50.038Z" fill="white"/>
<path d="M62.3836 17.6816C62.3836 20.1593 60.3723 22.1561 57.9091 22.1561C55.4313 22.1561 53.4346 20.1447 53.4346 17.6816C53.4346 15.2038 55.4459 13.207 57.9091 13.207C60.3723 13.207 62.3836 15.2184 62.3836 17.6816Z" fill="white"/>
</g>
<defs>
<clipPath id="clip0_963_1456">
<rect width="74.6238" height="74.6238" fill="white" transform="translate(0.672852 0.292969)"/>
</clipPath>
</defs>
</svg>
