<svg class="svg-icon" style="width: 1em; height: 1em;vertical-align: middle;fill: currentColor;overflow: hidden;" viewBox="0 0 1024 1024" version="1.1" xmlns="http://www.w3.org/2000/svg"><path d="M512 896a65.066667 65.066667 0 0 1-51.84-25.6c-90.026667-116.693333-241.066667-330.24-241.066667-449.28a292.906667 292.906667 0 1 1 585.813334 0c0 119.04-151.04 332.586667-241.066667 449.28A65.066667 65.066667 0 0 1 512 896z m0-725.333333a250.453333 250.453333 0 0 0-250.24 249.813333c0 76.586667 86.826667 234.666667 232.32 423.253333a23.253333 23.253333 0 0 0 35.84 0c145.493333-188.586667 232.32-346.666667 232.32-423.253333A250.453333 250.453333 0 0 0 512 170.666667z" fill="#333333" /><path d="M512 512a128 128 0 1 1 128-128 128 128 0 0 1-128 128z m0-213.333333a85.333333 85.333333 0 1 0 85.333333 85.333333 85.333333 85.333333 0 0 0-85.333333-85.333333z" fill="#333333" /></svg>