<svg width="1336" height="235" viewBox="0 0 1336 235" fill="none" xmlns="http://www.w3.org/2000/svg">
<g opacity="0.7">
<path d="M121.82 76.55C121.82 71.89 120.77 67.25 118.46 63.21C115.99 58.88 110.65 53.95 105.57 54.56C105.57 54.56 40.2199 61.27 17.2599 84.94C17.2599 84.94 -14.9701 111.01 8.62988 139.42C12.6399 144.25 17.6399 148.15 23.1199 151.21C35.3099 158.01 64.3699 172.87 89.7399 175.36C95.7999 175.95 101.97 175.26 107.59 172.92C114.28 170.14 121.62 164.69 121.81 154.17V76.56L121.82 76.55Z" fill="#F100FF"/>
</g>
<g opacity="0.7">
<path d="M135.58 76.55C135.58 71.89 136.63 67.25 138.94 63.21C141.41 58.88 146.75 53.95 151.83 54.56C151.83 54.56 217.18 61.27 240.14 84.94C240.14 84.94 272.37 111.01 248.77 139.42C244.76 144.25 239.76 148.15 234.28 151.21C222.09 158.01 193.03 172.87 167.66 175.36C161.6 175.95 155.43 175.26 149.81 172.92C143.12 170.14 135.78 164.69 135.59 154.17V76.56L135.58 76.55Z" fill="#F100FF"/>
</g>
<g opacity="0.7">
<path d="M121.82 18.9899C121.82 14.9799 120.92 10.9799 118.93 7.4999C116.8 3.7699 112.2 -0.480095 107.82 0.0499046C107.82 0.0499046 51.5298 5.8299 31.7598 26.2199C31.7598 26.2199 3.99979 48.6799 24.3198 73.1399C27.7798 77.2999 32.0798 80.6599 36.7998 83.2999C47.2998 89.1599 72.3298 101.96 94.1898 104.1C99.4098 104.61 104.72 104.01 109.57 102C115.33 99.5999 121.66 94.9099 121.82 85.8499V18.9899Z" fill="#0010E1"/>
</g>
<g opacity="0.7">
<path d="M135.58 18.9899C135.58 14.9799 136.48 10.9799 138.47 7.4999C140.6 3.7699 145.2 -0.480095 149.58 0.0499046C149.58 0.0499046 205.87 5.8299 225.64 26.2199C225.64 26.2199 253.4 48.6799 233.08 73.1399C229.62 77.2999 225.32 80.6599 220.6 83.2999C210.1 89.1599 185.07 101.96 163.21 104.1C157.99 104.61 152.68 104.01 147.83 102C142.07 99.5999 135.74 94.9099 135.58 85.8499V18.9899Z" fill="#0010E1"/>
</g>
<g opacity="0.7">
<path d="M121.82 149.38C121.82 145.37 120.92 141.37 118.93 137.89C116.8 134.16 112.2 129.91 107.82 130.44C107.82 130.44 51.5298 136.22 31.7598 156.61C31.7598 156.61 3.99979 179.07 24.3198 203.53C27.7798 207.69 32.0798 211.05 36.7998 213.69C47.2998 219.55 72.3298 232.35 94.1898 234.49C99.4098 235 104.72 234.4 109.57 232.39C115.33 229.99 121.66 225.3 121.82 216.24V149.39V149.38Z" fill="#FE6500"/>
</g>
<g opacity="0.7">
<path d="M135.58 149.38C135.58 145.37 136.48 141.37 138.47 137.89C140.6 134.16 145.2 129.91 149.58 130.44C149.58 130.44 205.87 136.22 225.64 156.61C225.64 156.61 253.4 179.07 233.08 203.53C229.62 207.69 225.32 211.05 220.6 213.69C210.1 219.55 185.07 232.35 163.21 234.49C157.99 235 152.68 234.4 147.83 232.39C142.07 229.99 135.74 225.3 135.58 216.24V149.39V149.38Z" fill="#FE6500"/>
</g>
<path d="M329.64 88.2502H297.54V68.4502H385.29V88.2502H353.19V175.55H329.64V88.2502Z" fill="#FCF7EB"/>
<path d="M415.74 68.4602H439.89L479.94 175.56H455.49L447.39 151.71H407.34L398.94 175.56H375.09L415.74 68.4602ZM413.49 134.15H441.24L427.74 94.8502H427.44L413.49 134.15Z" fill="#FCF7EB"/>
<path d="M489.24 68.4602H512.64L557.34 140.31H557.64V68.4602H579.69V175.56H556.14L511.59 103.86H511.29V175.56H489.24V68.4602Z" fill="#FCF7EB"/>
<path d="M600.39 68.4602H623.94V112.86L665.79 68.4602H695.19L653.34 110.76L699.24 175.56H669.69L637.44 127.41L623.94 141.06V175.56H600.39V68.4602Z" fill="#FCF7EB"/>
<path d="M708.69 68.4602H788.79V88.2602H732.24V111.21H784.14V129.51H732.24V155.76H789.99V175.56H708.69V68.4602Z" fill="#FCF7EB"/>
<path d="M821.94 140C821.94 154.25 833.04 159.8 845.64 159.8C853.89 159.8 866.49 157.4 866.49 146.45C866.49 134.9 850.44 132.95 834.69 128.75C818.79 124.55 802.74 118.4 802.74 98.3001C802.74 76.4001 823.44 65.9001 842.79 65.9001C865.14 65.9001 885.69 75.6501 885.69 100.4H862.89C862.14 87.5001 852.99 84.2001 841.74 84.2001C834.24 84.2001 825.54 87.3501 825.54 96.3501C825.54 104.6 830.64 105.65 857.49 112.55C865.29 114.5 889.29 119.45 889.29 143.75C889.29 163.4 873.84 178.1 844.74 178.1C821.04 178.1 798.84 166.4 799.14 140H821.94Z" fill="#FCF7EB"/>
<path d="M926.93 88.2502H894.83V68.4502H982.58V88.2502H950.48V175.55H926.93V88.2502Z" fill="#FCF7EB"/>
<path d="M994.88 68.4602H1052.63C1071.83 68.4602 1083.98 81.8102 1083.98 98.0102C1083.98 110.61 1078.88 120.06 1067.03 124.86V125.16C1078.58 128.16 1081.88 139.41 1082.63 150.21C1083.08 156.96 1082.93 169.56 1087.13 175.56H1063.58C1060.73 168.81 1061.03 158.46 1059.83 149.91C1058.18 138.66 1053.83 133.71 1041.98 133.71H1018.43V175.56H994.88V68.4602ZM1018.43 116.9H1044.23C1054.73 116.9 1060.43 112.4 1060.43 101.6C1060.43 90.8002 1054.73 86.7502 1044.23 86.7502H1018.43V116.9Z" fill="#FCF7EB"/>
<path d="M1110.83 159.8C1102.73 149.9 1098.53 136.85 1098.53 122.45C1098.53 90.6501 1118.03 65.9001 1151.18 65.9001C1164.98 65.9001 1176.38 70.1001 1184.93 77.4501L1196.93 64.1001L1204.43 70.7001L1191.83 84.6501C1199.63 94.5501 1203.83 107.75 1203.83 122.45C1203.83 153.35 1184.33 178.1 1151.18 178.1C1137.38 178.1 1125.98 173.75 1117.73 166.7L1105.28 180.5L1097.93 174.05L1110.83 159.8ZM1170.68 93.3501C1166.18 88.7001 1159.73 85.7001 1151.18 85.7001C1130.03 85.7001 1122.08 103.7 1122.08 122.45C1122.08 129.5 1123.28 136.55 1126.28 142.7L1170.68 93.3501ZM1131.98 150.95C1136.48 155.45 1142.78 158.3 1151.18 158.3C1172.33 158.3 1180.28 140.3 1180.28 122.45C1180.28 115.25 1179.08 108.2 1176.23 102.05L1131.98 150.95Z" fill="#FCF7EB"/>
<path d="M1219.88 68.4602H1253.03L1278.08 142.11H1278.38L1302.08 68.4602H1335.23V175.56H1313.18V99.6602H1312.88L1286.63 175.56H1268.48L1242.23 100.41H1241.93V175.56H1219.88V68.4602Z" fill="#FCF7EB"/>
</svg>
