<svg width="258" height="235" viewBox="0 0 258 235" fill="none" xmlns="http://www.w3.org/2000/svg">
<g opacity="0.7">
<path d="M121.82 76.55C121.82 71.89 120.77 67.25 118.46 63.21C115.99 58.88 110.65 53.95 105.57 54.56C105.57 54.56 40.2199 61.27 17.2599 84.94C17.2599 84.94 -14.9701 111.01 8.62988 139.42C12.6399 144.25 17.6399 148.15 23.1199 151.21C35.3099 158.01 64.3699 172.87 89.7399 175.36C95.7999 175.95 101.97 175.26 107.59 172.92C114.28 170.14 121.62 164.69 121.81 154.17V76.56L121.82 76.55Z" fill="#F100FF"/>
</g>
<g opacity="0.7">
<path d="M135.58 76.55C135.58 71.89 136.63 67.25 138.94 63.21C141.41 58.88 146.75 53.95 151.83 54.56C151.83 54.56 217.18 61.27 240.14 84.94C240.14 84.94 272.37 111.01 248.77 139.42C244.76 144.25 239.76 148.15 234.28 151.21C222.09 158.01 193.03 172.87 167.66 175.36C161.6 175.95 155.43 175.26 149.81 172.92C143.12 170.14 135.78 164.69 135.59 154.17V76.56L135.58 76.55Z" fill="#F100FF"/>
</g>
<g opacity="0.7">
<path d="M121.82 18.9899C121.82 14.9799 120.92 10.9799 118.93 7.4999C116.8 3.7699 112.2 -0.480095 107.82 0.0499046C107.82 0.0499046 51.53 5.8299 31.76 26.2199C31.76 26.2199 4.00003 48.6799 24.32 73.1399C27.78 77.2999 32.08 80.6599 36.8 83.2999C47.3 89.1599 72.33 101.96 94.19 104.1C99.41 104.61 104.72 104.01 109.57 102C115.33 99.5999 121.66 94.9099 121.82 85.8499V18.9899Z" fill="#0010E1"/>
</g>
<g opacity="0.7">
<path d="M135.58 18.9899C135.58 14.9799 136.48 10.9799 138.47 7.4999C140.6 3.7699 145.2 -0.480095 149.58 0.0499046C149.58 0.0499046 205.87 5.8299 225.64 26.2199C225.64 26.2199 253.4 48.6799 233.08 73.1399C229.62 77.2999 225.32 80.6599 220.6 83.2999C210.1 89.1599 185.07 101.96 163.21 104.1C157.99 104.61 152.68 104.01 147.83 102C142.07 99.5999 135.74 94.9099 135.58 85.8499V18.9899Z" fill="#0010E1"/>
</g>
<g opacity="0.7">
<path d="M121.82 149.38C121.82 145.37 120.92 141.37 118.93 137.89C116.8 134.16 112.2 129.91 107.82 130.44C107.82 130.44 51.53 136.22 31.76 156.61C31.76 156.61 4.00003 179.07 24.32 203.53C27.78 207.69 32.08 211.05 36.8 213.69C47.3 219.55 72.33 232.35 94.19 234.49C99.41 235 104.72 234.4 109.57 232.39C115.33 229.99 121.66 225.3 121.82 216.24V149.39V149.38Z" fill="#FE6500"/>
</g>
<g opacity="0.7">
<path d="M135.58 149.38C135.58 145.37 136.48 141.37 138.47 137.89C140.6 134.16 145.2 129.91 149.58 130.44C149.58 130.44 205.87 136.22 225.64 156.61C225.64 156.61 253.4 179.07 233.08 203.53C229.62 207.69 225.32 211.05 220.6 213.69C210.1 219.55 185.07 232.35 163.21 234.49C157.99 235 152.68 234.4 147.83 232.39C142.07 229.99 135.74 225.3 135.58 216.24V149.39V149.38Z" fill="#FE6500"/>
</g>
</svg>
