<svg xmlns="http://www.w3.org/2000/svg" width="16" height="16" id="american">
  <path fill="none" stroke="#000" stroke-linecap="round" stroke-linejoin="round" stroke-miterlimit="34.178" d="M15.5 8.5c0 3.863-3.148 7-7.02 7-3.873 0-6.98-3.137-6.98-7s3.107-7 6.98-7c3.872 0 7.02 3.137 7.02 7h0z"></path>
  <path fill="none" stroke="#000" stroke-linecap="round" stroke-linejoin="round" stroke-width="1.135" d="M187.5 1120.859h0c-1.108 0-2-.781-2-1.75 0-.97.892-1.75 2-1.75h0c1.108 0 2 .78 2 1.75m-2 1.75h0c1.108 0 2 .78 2 1.75 0 .969-.892 1.75-2 1.75h0c-1.108 0-2-.781-2-1.75m2 1.757v.993m0-8.993v.993" transform="matrix(.8742 0 0 .888 -155.411 -986.833)"></path>
</svg>
