<svg width="100" height="100" viewBox="0 0 100 100" fill="none" xmlns="http://www.w3.org/2000/svg">
<path d="M50.04 0.242188C22.7861 0.242188 0.691406 22.3363 0.691406 49.5902C0.691406 76.8452 22.7861 98.9375 50.04 98.9375C77.2968 98.9375 99.3891 76.8452 99.3891 49.5902C99.3891 22.338 77.2968 0.244545 50.0394 0.244545L50.04 0.242188ZM72.6709 71.4161C71.787 72.8658 69.8895 73.3254 68.4398 72.4356C56.8533 65.3583 42.2673 63.7554 25.0896 67.68C23.4343 68.0572 21.7843 67.0201 21.4072 65.3642C21.0282 63.7083 22.0613 62.0583 23.7207 61.6811C42.5189 57.3846 58.6435 59.2356 71.6514 67.185C73.1011 68.0749 73.5607 69.9665 72.6709 71.4161ZM78.7111 57.9775C77.5973 59.7895 75.2284 60.3611 73.4193 59.2474C60.1545 51.0922 39.9343 48.731 24.2446 53.4936C22.2098 54.1082 20.0606 52.9615 19.4431 50.9302C18.8302 48.8954 19.9775 46.7504 22.0088 46.1316C39.9308 40.6937 62.2111 43.3278 77.4441 52.6886C79.2532 53.8024 79.8248 56.1707 78.7111 57.9775ZM79.2296 43.9855C63.3248 34.5386 37.0839 33.67 21.8986 38.2788C19.4602 39.0184 16.8814 37.6418 16.1425 35.2033C15.4035 32.7637 16.7789 30.1867 19.2191 29.4454C36.6508 24.1536 65.6289 25.176 83.9404 36.0466C86.1384 37.3483 86.8573 40.181 85.555 42.3714C84.2586 44.5647 81.4182 45.2878 79.232 43.9855H79.2296Z" fill="white"/>
</svg>
